# xmcd
#
# Track frame offsets: 
#        182
#        15052
#        35960
#
# Disc length: 636 seconds
#
# Revision: 1
# Processed by: cddbd v1.5.2PL0 Copyright (c) Steve Scherf et al.
# Submitted via: ExactAudioCopy v1.3
#
DISCID=18027a03
DTITLE=Big H - Time machine
DYEAR=1995
DGENRE=Country
TTITLE0=Time machine
TTITLE1=Dead drunk
TTITLE2=Legend of the boing boing man
EXTD=
EXTT0=
EXTT1=
EXTT2=
PLAYORDER=
